<?xml version="1.0" encoding="UTF-8"?>
<svg xmlns="http://www.w3.org/2000/svg" xmlns:xlink="http://www.w3.org/1999/xlink" viewBox="0 0 26 26" version="1.1" width="100px" height="100px">
<g id="surface1">
<path style=" " d="M 0 9 L 0 17 L 8 17 L 8 9 Z M 9 9 L 9 17 L 17 17 L 17 9 Z M 18 9 L 18 17 L 26 17 L 26 9 Z M 22.25 10.28125 C 22.445313 10.273438 22.683594 10.289063 22.9375 10.3125 C 22.9375 10.3125 23.535156 10.355469 24.40625 10.71875 L 24.40625 11.71875 C 24.40625 11.71875 23.4375 11.105469 22.375 11.09375 C 22.375 11.09375 20.402344 11.0625 20.3125 13 C 20.3125 13 20.226563 14.773438 22.34375 14.875 C 22.34375 14.875 23.234375 14.988281 24.4375 14.21875 L 24.4375 15.25 C 24.4375 15.25 22.839844 16.207031 20.96875 15.46875 C 20.96875 15.46875 19.371094 14.886719 19.3125 13 C 19.3125 13 19.242188 11.050781 21.34375 10.40625 C 21.34375 10.40625 21.667969 10.300781 22.25 10.28125 Z M 2.0625 10.34375 L 3.9375 10.34375 C 5.621094 10.5 5.5 11.75 5.5 11.75 C 5.507813 12.523438 4.84375 12.84375 4.84375 12.84375 C 6.046875 13.148438 6 14.15625 6 14.15625 C 6 15.664063 4.21875 15.65625 4.21875 15.65625 L 2.0625 15.65625 Z M 11.125 10.34375 L 13 10.34375 C 14.683594 10.5 14.59375 11.75 14.59375 11.75 C 14.601563 12.523438 13.90625 12.84375 13.90625 12.84375 C 15.109375 13.148438 15.0625 14.15625 15.0625 14.15625 C 15.0625 15.664063 13.28125 15.65625 13.28125 15.65625 L 11.125 15.65625 Z M 3 11.15625 L 3 12.53125 L 3.65625 12.53125 C 3.65625 12.53125 4.53125 12.546875 4.53125 11.8125 C 4.53125 11.8125 4.574219 11.199219 3.78125 11.15625 Z M 12.09375 11.15625 L 12.09375 12.53125 L 12.71875 12.53125 C 12.71875 12.53125 13.59375 12.546875 13.59375 11.8125 C 13.59375 11.8125 13.636719 11.199219 12.84375 11.15625 Z M 3 13.375 L 3 14.84375 L 4.03125 14.84375 C 4.03125 14.84375 5.03125 14.898438 5.03125 14.09375 C 5.03125 14.09375 5.0625 13.367188 4.03125 13.375 Z M 12.09375 13.375 L 12.09375 14.84375 L 13.09375 14.84375 C 13.09375 14.84375 14.09375 14.898438 14.09375 14.09375 C 14.09375 14.09375 14.125 13.367188 13.09375 13.375 Z "/>
</g>
</svg>
